<mxfile host="Electron" modified="2024-03-16T17:58:39.953Z" agent="Mozilla/5.0 (Windows NT 10.0; Win64; x64) AppleWebKit/537.36 (KHTML, like Gecko) draw.io/24.0.4 Chrome/120.0.6099.109 Electron/28.1.0 Safari/537.36" etag="nfa5u2XoEhVfEd6wQZ0u" version="24.0.4" type="device">
  <diagram name="Page-1" id="nKC071TRWI5F_xdxqdQz">
    <mxGraphModel dx="794" dy="519" grid="1" gridSize="10" guides="1" tooltips="1" connect="1" arrows="1" fold="1" page="1" pageScale="1" pageWidth="827" pageHeight="1169" math="0" shadow="0">
      <root>
        <mxCell id="0" />
        <mxCell id="1" parent="0" />
        <mxCell id="XV9Z6AwVMP2NDXeYMpku-47" style="rounded=0;orthogonalLoop=1;jettySize=auto;html=1;entryX=0;entryY=1;entryDx=0;entryDy=0;" edge="1" parent="1" target="XV9Z6AwVMP2NDXeYMpku-5">
          <mxGeometry relative="1" as="geometry">
            <mxPoint x="130" y="320" as="sourcePoint" />
          </mxGeometry>
        </mxCell>
        <mxCell id="XV9Z6AwVMP2NDXeYMpku-1" value="Teacher" style="shape=umlActor;verticalLabelPosition=bottom;verticalAlign=top;html=1;outlineConnect=0;" vertex="1" parent="1">
          <mxGeometry x="100" y="290" width="30" height="60" as="geometry" />
        </mxCell>
        <mxCell id="XV9Z6AwVMP2NDXeYMpku-48" style="edgeStyle=orthogonalEdgeStyle;rounded=0;orthogonalLoop=1;jettySize=auto;html=1;entryX=0;entryY=0.5;entryDx=0;entryDy=0;" edge="1" parent="1" source="XV9Z6AwVMP2NDXeYMpku-2" target="XV9Z6AwVMP2NDXeYMpku-42">
          <mxGeometry relative="1" as="geometry" />
        </mxCell>
        <mxCell id="XV9Z6AwVMP2NDXeYMpku-2" value="Student" style="shape=umlActor;verticalLabelPosition=bottom;verticalAlign=top;html=1;outlineConnect=0;" vertex="1" parent="1">
          <mxGeometry x="100" y="450" width="30" height="60" as="geometry" />
        </mxCell>
        <mxCell id="XV9Z6AwVMP2NDXeYMpku-3" value="Create question&amp;nbsp;&lt;div&gt;bank&lt;/div&gt;" style="ellipse;whiteSpace=wrap;html=1;" vertex="1" parent="1">
          <mxGeometry x="180" y="90" width="120" height="60" as="geometry" />
        </mxCell>
        <mxCell id="XV9Z6AwVMP2NDXeYMpku-25" style="rounded=0;orthogonalLoop=1;jettySize=auto;html=1;exitX=1;exitY=0.5;exitDx=0;exitDy=0;entryX=0;entryY=0.5;entryDx=0;entryDy=0;dashed=1;" edge="1" parent="1" source="XV9Z6AwVMP2NDXeYMpku-4" target="XV9Z6AwVMP2NDXeYMpku-7">
          <mxGeometry relative="1" as="geometry" />
        </mxCell>
        <mxCell id="XV9Z6AwVMP2NDXeYMpku-55" value="&amp;lt;&amp;lt;extends&amp;gt;&amp;gt;" style="edgeLabel;html=1;align=center;verticalAlign=middle;resizable=0;points=[];" vertex="1" connectable="0" parent="XV9Z6AwVMP2NDXeYMpku-25">
          <mxGeometry x="-0.1515" y="4" relative="1" as="geometry">
            <mxPoint as="offset" />
          </mxGeometry>
        </mxCell>
        <mxCell id="XV9Z6AwVMP2NDXeYMpku-36" value="" style="edgeStyle=orthogonalEdgeStyle;rounded=0;orthogonalLoop=1;jettySize=auto;html=1;dashed=1;entryX=0.5;entryY=1;entryDx=0;entryDy=0;" edge="1" parent="1" source="XV9Z6AwVMP2NDXeYMpku-4" target="XV9Z6AwVMP2NDXeYMpku-35">
          <mxGeometry relative="1" as="geometry">
            <mxPoint x="424" y="290" as="targetPoint" />
          </mxGeometry>
        </mxCell>
        <mxCell id="XV9Z6AwVMP2NDXeYMpku-54" value="&amp;lt;&amp;lt;extends&amp;gt;&amp;gt;" style="edgeLabel;html=1;align=center;verticalAlign=middle;resizable=0;points=[];" vertex="1" connectable="0" parent="XV9Z6AwVMP2NDXeYMpku-36">
          <mxGeometry x="-0.0933" y="-2" relative="1" as="geometry">
            <mxPoint as="offset" />
          </mxGeometry>
        </mxCell>
        <mxCell id="XV9Z6AwVMP2NDXeYMpku-4" value="List question banks" style="ellipse;whiteSpace=wrap;html=1;" vertex="1" parent="1">
          <mxGeometry x="364" y="320" width="120" height="60" as="geometry" />
        </mxCell>
        <mxCell id="XV9Z6AwVMP2NDXeYMpku-5" value="Add question" style="ellipse;whiteSpace=wrap;html=1;" vertex="1" parent="1">
          <mxGeometry x="180" y="210" width="120" height="60" as="geometry" />
        </mxCell>
        <mxCell id="XV9Z6AwVMP2NDXeYMpku-6" value="Delete questions" style="ellipse;whiteSpace=wrap;html=1;" vertex="1" parent="1">
          <mxGeometry x="364" y="90" width="120" height="60" as="geometry" />
        </mxCell>
        <mxCell id="XV9Z6AwVMP2NDXeYMpku-7" value="Delete question&amp;nbsp;&lt;div&gt;bank&lt;/div&gt;" style="ellipse;whiteSpace=wrap;html=1;" vertex="1" parent="1">
          <mxGeometry x="590" y="320" width="120" height="60" as="geometry" />
        </mxCell>
        <mxCell id="XV9Z6AwVMP2NDXeYMpku-60" style="edgeStyle=orthogonalEdgeStyle;rounded=0;orthogonalLoop=1;jettySize=auto;html=1;entryX=0;entryY=0.5;entryDx=0;entryDy=0;dashed=1;" edge="1" parent="1" source="XV9Z6AwVMP2NDXeYMpku-9" target="XV9Z6AwVMP2NDXeYMpku-50">
          <mxGeometry relative="1" as="geometry">
            <Array as="points">
              <mxPoint x="570" y="520" />
              <mxPoint x="570" y="480" />
            </Array>
          </mxGeometry>
        </mxCell>
        <mxCell id="XV9Z6AwVMP2NDXeYMpku-9" value="List question banks" style="ellipse;whiteSpace=wrap;html=1;" vertex="1" parent="1">
          <mxGeometry x="430" y="490" width="120" height="60" as="geometry" />
        </mxCell>
        <mxCell id="XV9Z6AwVMP2NDXeYMpku-18" value="" style="endArrow=classic;html=1;rounded=0;entryX=0;entryY=1;entryDx=0;entryDy=0;exitX=0.822;exitY=0;exitDx=0;exitDy=0;exitPerimeter=0;" edge="1" parent="1" source="XV9Z6AwVMP2NDXeYMpku-1" target="XV9Z6AwVMP2NDXeYMpku-3">
          <mxGeometry width="50" height="50" relative="1" as="geometry">
            <mxPoint x="120" y="230" as="sourcePoint" />
            <mxPoint x="130" y="160" as="targetPoint" />
          </mxGeometry>
        </mxCell>
        <mxCell id="XV9Z6AwVMP2NDXeYMpku-20" value="&amp;lt;&amp;lt;includes&amp;gt;&amp;gt;" style="rounded=0;orthogonalLoop=1;jettySize=auto;html=1;exitX=0.5;exitY=1;exitDx=0;exitDy=0;entryX=0.5;entryY=0;entryDx=0;entryDy=0;dashed=1;" edge="1" parent="1" source="XV9Z6AwVMP2NDXeYMpku-3" target="XV9Z6AwVMP2NDXeYMpku-5">
          <mxGeometry relative="1" as="geometry">
            <mxPoint as="offset" />
          </mxGeometry>
        </mxCell>
        <mxCell id="XV9Z6AwVMP2NDXeYMpku-23" style="rounded=0;orthogonalLoop=1;jettySize=auto;html=1;" edge="1" parent="1" target="XV9Z6AwVMP2NDXeYMpku-4">
          <mxGeometry relative="1" as="geometry">
            <mxPoint x="140" y="350" as="sourcePoint" />
          </mxGeometry>
        </mxCell>
        <mxCell id="XV9Z6AwVMP2NDXeYMpku-34" style="rounded=0;orthogonalLoop=1;jettySize=auto;html=1;exitX=0;exitY=0;exitDx=0;exitDy=0;dashed=1;" edge="1" parent="1" source="XV9Z6AwVMP2NDXeYMpku-4" target="XV9Z6AwVMP2NDXeYMpku-5">
          <mxGeometry relative="1" as="geometry">
            <mxPoint x="259.96000000000004" y="290" as="targetPoint" />
          </mxGeometry>
        </mxCell>
        <mxCell id="XV9Z6AwVMP2NDXeYMpku-53" value="&amp;lt;&amp;lt;extends&amp;gt;&amp;gt;" style="edgeLabel;html=1;align=center;verticalAlign=middle;resizable=0;points=[];" vertex="1" connectable="0" parent="XV9Z6AwVMP2NDXeYMpku-34">
          <mxGeometry x="-0.0894" relative="1" as="geometry">
            <mxPoint as="offset" />
          </mxGeometry>
        </mxCell>
        <mxCell id="XV9Z6AwVMP2NDXeYMpku-37" value="&amp;lt;&amp;lt;includes&amp;gt;&amp;gt;" style="edgeStyle=orthogonalEdgeStyle;rounded=0;orthogonalLoop=1;jettySize=auto;html=1;dashed=1;" edge="1" parent="1" source="XV9Z6AwVMP2NDXeYMpku-35" target="XV9Z6AwVMP2NDXeYMpku-6">
          <mxGeometry relative="1" as="geometry" />
        </mxCell>
        <mxCell id="XV9Z6AwVMP2NDXeYMpku-35" value="List questions" style="ellipse;whiteSpace=wrap;html=1;" vertex="1" parent="1">
          <mxGeometry x="364" y="210" width="120" height="60" as="geometry" />
        </mxCell>
        <mxCell id="XV9Z6AwVMP2NDXeYMpku-57" style="edgeStyle=orthogonalEdgeStyle;rounded=0;orthogonalLoop=1;jettySize=auto;html=1;entryX=0;entryY=0.5;entryDx=0;entryDy=0;exitX=1;exitY=0.5;exitDx=0;exitDy=0;dashed=1;" edge="1" parent="1" source="XV9Z6AwVMP2NDXeYMpku-42" target="XV9Z6AwVMP2NDXeYMpku-45">
          <mxGeometry relative="1" as="geometry">
            <Array as="points">
              <mxPoint x="380" y="480" />
              <mxPoint x="380" y="440" />
            </Array>
          </mxGeometry>
        </mxCell>
        <mxCell id="XV9Z6AwVMP2NDXeYMpku-58" style="edgeStyle=orthogonalEdgeStyle;rounded=0;orthogonalLoop=1;jettySize=auto;html=1;entryX=0;entryY=0.5;entryDx=0;entryDy=0;exitX=1;exitY=0.5;exitDx=0;exitDy=0;dashed=1;" edge="1" parent="1" source="XV9Z6AwVMP2NDXeYMpku-42" target="XV9Z6AwVMP2NDXeYMpku-9">
          <mxGeometry relative="1" as="geometry">
            <Array as="points">
              <mxPoint x="380" y="480" />
              <mxPoint x="380" y="520" />
            </Array>
          </mxGeometry>
        </mxCell>
        <mxCell id="XV9Z6AwVMP2NDXeYMpku-61" value="&amp;lt;&amp;lt;extends&amp;gt;&amp;gt;" style="edgeLabel;html=1;align=center;verticalAlign=middle;resizable=0;points=[];" vertex="1" connectable="0" parent="XV9Z6AwVMP2NDXeYMpku-58">
          <mxGeometry x="-0.8182" y="3" relative="1" as="geometry">
            <mxPoint x="21" as="offset" />
          </mxGeometry>
        </mxCell>
        <mxCell id="XV9Z6AwVMP2NDXeYMpku-42" value="Take quiz" style="ellipse;whiteSpace=wrap;html=1;" vertex="1" parent="1">
          <mxGeometry x="180" y="450" width="120" height="60" as="geometry" />
        </mxCell>
        <mxCell id="XV9Z6AwVMP2NDXeYMpku-59" style="edgeStyle=orthogonalEdgeStyle;rounded=0;orthogonalLoop=1;jettySize=auto;html=1;entryX=0;entryY=0.5;entryDx=0;entryDy=0;dashed=1;" edge="1" parent="1" source="XV9Z6AwVMP2NDXeYMpku-45" target="XV9Z6AwVMP2NDXeYMpku-50">
          <mxGeometry relative="1" as="geometry">
            <Array as="points">
              <mxPoint x="570" y="440" />
              <mxPoint x="570" y="480" />
            </Array>
          </mxGeometry>
        </mxCell>
        <mxCell id="XV9Z6AwVMP2NDXeYMpku-63" value="&amp;lt;&amp;lt;Includes&amp;gt;&amp;gt;" style="edgeLabel;html=1;align=center;verticalAlign=middle;resizable=0;points=[];" vertex="1" connectable="0" parent="XV9Z6AwVMP2NDXeYMpku-59">
          <mxGeometry x="0.3" y="1" relative="1" as="geometry">
            <mxPoint as="offset" />
          </mxGeometry>
        </mxCell>
        <mxCell id="XV9Z6AwVMP2NDXeYMpku-45" value="Search question banks" style="ellipse;whiteSpace=wrap;html=1;" vertex="1" parent="1">
          <mxGeometry x="430" y="410" width="120" height="60" as="geometry" />
        </mxCell>
        <mxCell id="XV9Z6AwVMP2NDXeYMpku-50" value="End quiz" style="ellipse;whiteSpace=wrap;html=1;" vertex="1" parent="1">
          <mxGeometry x="670" y="450" width="120" height="60" as="geometry" />
        </mxCell>
      </root>
    </mxGraphModel>
  </diagram>
</mxfile>
